<?xml version="1.0" encoding="UTF-8"?>
<svg id="_图层_2" data-name="图层 2" xmlns="http://www.w3.org/2000/svg" viewBox="0 0 72.82 27.65">
  <defs>
    <style>
      .cls-1 {
        fill: #fff;
      }

      .cls-2 {
        fill: #007ee5;
      }
    </style>
  </defs>
  <g id="_图层_1-2" data-name="图层 1">
    <path class="cls-2" d="M3.82,23.37c-1.02-1.07-1.87-2.3-2.5-3.64-.62-1.32-1.03-2.74-1.21-4.19-.38-3.01.25-6.06,1.78-8.68.93-1.6,2.17-2.99,3.65-4.1,1.43-1.07,3.03-1.85,4.78-2.31,3.55-.93,7.32-.42,10.49,1.44.72.43,1.4.91,2.04,1.44l.48.41-6.09,5.8-.38-.26c-.1-.06-.75-.41-.95-.51-1.1-.46-2.31-.53-3.46-.22-1.4.37-2.59,1.27-3.31,2.52-.76,1.3-.81,2.58-.7,3.41.21,1.69,1.21,3.19,2.68,4.04,1.25.73,2.73.93,4.12.55,1.4-.37,2.59-1.28,3.32-2.53.6-1.03.85-2.23.7-3.41-.1-.82-.39-1.62-.84-2.31l-.25-.4,6.05-5.77.4.48c2.73,3.4,3.7,7.87,2.63,12.1l-.14.51-.52-.08c-.42-.07-2.83-.48-2.92-.51l-.64-.12.2-.63c.19-.63.36-1.26.53-1.9l.14-.51.51.09.17.04c.02-.55-.03-1.1-.16-1.64-.03-.12-.07-.19-.1-.24l-1.31.21c-.07.02-.12.09-.11.17.14,1.44-.02,2.87-.51,4.24v.02s-.14.36-.4.97l4.43,1.68-.3.57c-.95,1.88-2.33,3.51-4.01,4.78-1.43,1.08-3.05,1.86-4.78,2.31-4.87,1.28-10.05-.18-13.52-3.83h0Z"/>
    <g>
      <g>
        <path class="cls-1" d="M50.93,10.22l-.88,6.23h-1.09c-.23,0-.42-.09-.57-.26-.15-.17-.21-.42-.17-.74l.03-.21c-.4.37-.84.67-1.32.88-.48.21-.99.31-1.54.31-.45,0-.85-.06-1.22-.17-.35-.12-.65-.3-.9-.53-.24-.22-.42-.51-.53-.85-.1-.35-.12-.75-.06-1.2.07-.49.23-.92.48-1.29.24-.36.57-.67.99-.91.41-.23.91-.41,1.5-.52.59-.11,1.26-.17,2.02-.17h.83l.07-.52c.04-.27.05-.5.03-.7-.03-.21-.09-.37-.2-.5-.11-.13-.27-.23-.46-.29-.2-.07-.44-.1-.74-.1-.4,0-.77.05-1.09.14-.33.08-.62.18-.88.29-.17.07-.33.06-.48-.01-.15-.07-.25-.2-.29-.38l-.2-.95c.1-.08.26-.17.46-.27.24-.11.52-.21.83-.31.31-.1.64-.18,1.01-.24.36-.07.73-.1,1.11-.1.66,0,1.22.07,1.68.2.46.13.82.33,1.08.6.27.27.44.62.52,1.05.08.42.08.92,0,1.51ZM48.09,13.74l.2-1.44h-.91c-.39,0-.73.03-1.01.08-.28.06-.51.14-.7.25-.19.12-.33.26-.43.42s-.17.35-.2.56c-.05.35.03.63.22.84.2.2.49.29.9.29.34,0,.66-.08.97-.25.3-.17.62-.42.97-.76Z"/>
        <path class="cls-1" d="M59.72,8.04l.43-3.15c.07-.47.29-.85.64-1.15.35-.3.76-.46,1.22-.46h.74l-1.83,13.12h-1.19c-.27,0-.5-.1-.67-.3-.18-.2-.25-.44-.22-.72l.06-.41c-.11.1-.21.2-.31.29-.31.34-.65.61-1.02.81-.51.25-1.06.38-1.65.38-.64,0-1.17-.12-1.58-.36-.41-.25-.73-.59-.95-1.02-.22-.42-.36-.91-.41-1.48-.05-.57-.02-1.17.07-1.79.1-.76.27-1.43.52-2.03.25-.61.56-1.12.92-1.54.37-.43.81-.76,1.3-.98.49-.23,1.05-.35,1.65-.35.48,0,.89.1,1.25.29.36.2.71.48,1.04.85ZM59.01,13.06l.41-2.81c-.29-.43-.57-.76-.85-.99-.28-.22-.59-.34-.94-.34-.31,0-.58.08-.83.24-.25.15-.46.35-.63.62-.18.26-.32.55-.43.87-.11.32-.19.64-.24.98-.05.36-.07.71-.06,1.04,0,.34.06.64.15.91.09.26.24.47.43.63.19.16.45.24.78.24.16,0,.32-.02.49-.07.16-.05.33-.13.5-.24.18-.1.36-.24.56-.42.2-.18.41-.39.64-.64Z"/>
        <path class="cls-1" d="M69.8,14.53c.08,0,.2-.04.35-.08.29-.06.56-.04.8.08.25.12.43.32.55.59l.24.53c-.07.04-.16.08-.28.14h-.03c-.12.05-.29.11-.49.19-.21.08-.39.14-.55.17-.29.07-.63.14-1.01.2-.37.06-.77.08-1.18.08-.76,0-1.4-.1-1.95-.29-.54-.19-.98-.47-1.3-.85-.33-.39-.54-.88-.64-1.47s-.1-1.28.01-2.07c.1-.75.3-1.42.59-2.03.28-.61.63-1.12,1.06-1.54s.93-.74,1.5-.97c.57-.21,1.19-.32,1.86-.32s1.29.1,1.76.31c.48.21.85.49,1.12.87.27.37.45.81.53,1.32.07.5.07,1.05-.01,1.65l-.04.38c-.05.29-.15.5-.29.64-.15.14-.34.21-.56.21h-5.15c-.06.36-.06.69-.01.98.05.3.14.55.29.76.16.21.38.36.66.46.28.11.62.17,1.04.17s.79-.03,1.12-.1ZM67.17,9.89c-.11.26-.2.54-.25.84h3.57c.11-.67.05-1.2-.18-1.58-.23-.38-.65-.57-1.26-.57-.3,0-.57.06-.81.17-.24.12-.45.28-.62.46-.18.2-.33.42-.45.69Z"/>
      </g>
      <path class="cls-1" d="M37.23,18.01l1.21-9.83c.06-.45.22-.81.47-1.1.26-.29.56-.43.9-.43l1.26.02-1.24,11.49c-.09.78-.22,1.47-.4,2.08-.18.62-.42,1.15-.74,1.58-.31.43-.69.76-1.14.99-.45.23-1,.34-1.63.34-.21,0-.41-.02-.61-.06-.19-.04-.36-.09-.52-.15-.16-.06-.3-.13-.41-.21-.02-.01-.07-.04-.14-.1-.07-.05-.16-.11-.24-.17-.09-.06-.17-.12-.24-.17-.06-.05-.13-.11-.21-.19-.08-.08-.17-.15-.24-.22-.08-.07-.17-.16-.28-.26l.59-1.15c.18-.32.4-.53.68-.64.28-.11.55-.09.83.05.27.15.51.24.73.27.18,0,.34-.03.49-.1.15-.06.28-.18.38-.34.11-.17.2-.38.28-.65.03-.13.06-.27.1-.43.03-.16.08-.37.13-.64Z"/>
      <g>
        <path class="cls-2" d="M45.69,23l1.57-3.54c.24-.44.58-.66,1.02-.66h.43s-2.47,5.58-2.47,5.58h-1.48l-1.09-5.58h.61c.19,0,.35.06.5.18s.23.27.27.46l.64,3.57h0Z"/>
        <path class="cls-2" d="M49.95,20.51c.02-.12.08-.22.16-.3s.19-.12.31-.12h.65l-.46,3.36c-.04.27-.16.49-.35.66s-.43.25-.69.25h-.15l.53-3.87ZM50.57,18.81h.72l-.08.6c-.02.09-.06.16-.12.21-.06.05-.13.08-.21.08h-.78l.08-.55c.01-.1.06-.18.13-.24s.16-.09.26-.09Z"/>
        <path class="cls-2" d="M55.11,23.48s.09-.02.16-.04c.13-.03.26-.02.37.04.11.06.2.15.25.27l.11.24s-.07.04-.13.06h-.01c-.06.02-.13.05-.22.09-.09.04-.18.06-.25.08-.13.03-.29.06-.46.09-.17.03-.35.04-.54.04-.35,0-.65-.04-.89-.13-.25-.09-.45-.22-.6-.39-.15-.18-.25-.41-.3-.68-.05-.27-.04-.59,0-.95.05-.34.14-.65.27-.93.13-.28.29-.51.49-.71s.43-.34.69-.44c.26-.1.55-.15.86-.15s.59.05.81.14c.22.09.39.23.51.4.12.17.21.37.24.6.03.23.03.48,0,.76l-.02.17c-.02.13-.07.23-.14.3-.07.06-.15.1-.26.1h-2.37c-.03.17-.03.32,0,.45.02.14.07.25.13.35.07.09.17.17.3.21.13.05.29.08.48.08s.37-.02.51-.04ZM53.9,21.35c-.05.12-.09.25-.12.39h1.64c.05-.31.02-.55-.08-.73-.11-.18-.3-.26-.58-.26-.14,0-.26.03-.37.08-.11.06-.21.13-.28.21-.08.09-.15.19-.21.31Z"/>
        <path class="cls-2" d="M58.02,19.94h.32c.17,0,.32.07.44.2.12.13.19.29.21.49l.12,2.1,1.43-2.1h.6l.94,2.19.72-2.46c.11-.28.29-.42.53-.42h.57l-1.3,4.43h-1.06l-.83-2.37-1.45,2.37h-1.04l-.21-4.43Z"/>
      </g>
    </g>
  </g>
</svg>